<?xml version="1.0" encoding="UTF-8"?>
<svg id="Layer_1" data-name="Layer 1" xmlns="http://www.w3.org/2000/svg" viewBox="0 0 500 500">
  <defs>
    <style>
      .cls-1 {
        fill: red;
      }

      .cls-2 {
        fill: #2563eb;
      }
    </style>
  </defs>
  <path class="cls-1" d="M317.44,243.54c0-20.95-16.98-37.93-37.94-37.93-11.92,0-22.55,5.5-29.5,14.09-6.95-8.6-17.59-14.09-29.5-14.09-20.95,0-37.93,16.98-37.93,37.93,0,44.76,67.44,87.31,67.44,87.31,0,0,67.44-46.16,67.44-87.31Z"/>
  <g>
    <g>
      <path class="cls-2" d="M228.74,458.45s-3.8-91.26-23.25-129.26c-16.42-32.09-36.83-48.98-51.5-59.93-8.25-6.16-14.69-10.45-17.58-14.49-4.33-6.06-10.03-22.87-17.41-40.04-6.23-14.47-13.65-29.19-22.48-37.96-.09-.09-.17-.18-.26-.26-1.8-1.76-3.64-3.29-5.5-4.67,10.16-25.84,20.98-51.2,22.54-71.17,1.36-17.39-1.92-31.29-6.76-40.17-6.53-12-15.89-14.85-20.5-4.72C78.03,73.42-5.34,224.93.27,259.4c5.61,34.47,56.92,86.82,56.92,86.82l61.73,56.92-9.62,55.31h119.45ZM99.14,137.86h0c.55.29.76.97.47,1.52-.29.55-.97.76-1.52.47-6.06-3.17-11.85-6.86-17.29-11.01-.49-.38-.59-1.08-.21-1.58s1.08-.59,1.58-.21c5.34,4.07,11.02,7.69,16.97,10.8ZM72.09,83.67c.14-.6.75-.98,1.35-.84.97.23,1.82.71,2.56,1.22.61.42,1.11.85,1.53,1.21.18-.32.39-.69.63-1.13.77-1.39,1.81-3.31,2.95-5.44,2.29-4.25,4.99-9.33,6.76-12.64,1.19-2.23,2.33-4.41,2.8-6.68.14-.69.22-1.4.22-2.1,0-1.58-.4-3.09-1.27-4.25h0c-.37-.5-.27-1.2.23-1.57.5-.37,1.2-.27,1.57.23,1.23,1.65,1.71,3.65,1.71,5.6,0,.87-.1,1.73-.27,2.56h0c-.57,2.69-1.83,5.04-3.02,7.28-2.42,4.55-6.62,12.42-9.09,16.94-.83,1.51-1.45,2.63-1.78,3.18-.09.15-.15.24-.25.38l-.17.18c-.07.05-.14.13-.39.22h0s-.01,0-.01,0c-.13.04-.24.05-.34.05-.24,0-.37-.06-.46-.09l-.2-.1-.22-.16c-.12-.1-.24-.21-.38-.33-.28-.25-.62-.56-1.02-.89-.78-.65-1.79-1.31-2.61-1.49-.6-.14-.98-.75-.84-1.35ZM88.65,170.32s-.02.02-.03.03c-.33.5-1,.66-1.52.35-7.09-4.34-15.23-6.19-22.5-6.18-4.65,0-8.94.76-12.33,2.06-3.4,1.3-5.86,3.16-6.99,5.19-.5.88-.78,2.28-.78,4.06,0,4.41,1.65,10.99,3.87,17.96,1.28,4.02,2.73,8.16,4.14,12.16,1.71-2.5,4.21-4.39,6.87-5.68,3.01-1.45,6.2-2.23,9.33-2.92-2.36-10.27-6.65-20.09-12.61-28.78h0c-.35-.51-.22-1.21.29-1.56.51-.35,1.21-.22,1.56.29,6.33,9.24,10.85,19.71,13.22,30.66l.24,1.1-1.1.24c-3.48.76-6.91,1.52-9.95,3-2.95,1.43-5.56,3.63-6.87,6.44.69,1.96,1.36,3.87,1.97,5.67,1.42,4.17,2.55,7.82,3.07,10.57.69,3.71,1.47,7.47,2.33,11.28.67,2.99,1.39,6,2.16,9.06.21.25.33.58.26.93,0,.01,0,.02,0,.04,1.81,7.05,3.9,14.3,6.29,21.8,2.77,8.69,5.94,17.7,9.55,27.12.22.58-.07,1.23-.65,1.45-.58.22-1.23-.07-1.45-.65-3.05-7.94-5.78-15.6-8.23-23.02-2.53-7.66-4.74-15.06-6.67-22.26-1.6,4.99-4.16,9.67-7.52,13.69-.4.48-1.11.54-1.58.14-.48-.4-.54-1.11-.14-1.58,4-4.78,6.8-10.56,8.1-16.65-1.83-7.17-3.37-14.13-4.64-20.94-.7-3.79-2.86-9.98-5.27-16.8-2.41-6.83-5.09-14.34-6.85-20.99-1.17-4.44-1.95-8.48-1.96-11.76,0-2,.28-3.75,1.06-5.16,1.52-2.71,4.44-4.76,8.14-6.19,3.71-1.42,8.25-2.21,13.14-2.21,7.64,0,16.17,1.93,23.67,6.51h0c.53.32.7,1.02.37,1.55Z"/>
      <path class="cls-2" d="M116.84,100.67c-1.57,19.96-12.38,45.33-22.54,71.17,1.86,1.37,3.7,2.91,5.5,4.67.09.08.17.18.26.26,8.83,8.77,16.26,23.49,22.48,37.96,7.39,17.17,13.08,33.98,17.41,40.04,2.89,4.04,9.33,8.33,17.58,14.49,6.83-32.67,23.31-69.52,23.33-94.98.01-19.97-6.57-34.14-13.36-39.9.11-1.67.18-3.32.19-4.92.02-30.25-13.05-48.96-22.58-49.4-3.72-33.46-24.06-48.23-30.06-31.73-.8,2.19-2.54,6.41-4.96,12.17,4.84,8.89,8.12,22.78,6.76,40.17ZM155.39,172.87c5.31-11.41,9.9-22.85,10.71-35.12h0c.04-.62.58-1.09,1.2-1.05.62.04,1.09.58,1.05,1.2-.85,12.75-5.57,24.44-10.91,35.92-5.34,11.48-11.3,22.76-14.76,34.66-1.13,3.89-2.06,8-3.38,11.97-1.33,3.97-3.07,7.8-5.87,11.07-.41.47-1.12.52-1.59.12-.47-.41-.52-1.12-.12-1.59,2.53-2.95,4.17-6.49,5.45-10.31,1.28-3.82,2.2-7.91,3.36-11.89,3.55-12.19,9.57-23.56,14.88-34.98ZM118.54,165.28c2.77-6.59,6.41-12.68,9.56-18.92,9.38-18.56,14.79-39.11,15.76-59.88h0c.03-.62.56-1.1,1.18-1.07.62.03,1.1.56,1.07,1.18-.99,21.09-6.48,41.95-16,60.79-3.2,6.33-6.81,12.38-9.5,18.78-2.79,6.64-4.61,13.7-6.42,20.78-.15.6-.77.96-1.37.81-.6-.15-.96-.77-.81-1.37,1.82-7.08,3.65-14.25,6.53-21.09Z"/>
    </g>
    <g>
      <path class="cls-2" d="M390.7,458.45l-9.62-55.31,61.73-56.92s51.31-52.35,56.92-86.82c5.61-34.47-77.76-185.98-85.78-203.62-4.61-10.13-13.97-7.28-20.5,4.72-4.84,8.89-8.12,22.78-6.76,40.17,1.57,19.96,12.38,45.33,22.54,71.17-1.86,1.37-3.7,2.91-5.5,4.67-.09.08-.17.18-.26.26-8.83,8.77-16.26,23.49-22.48,37.96-7.39,17.17-13.08,33.98-17.41,40.04-2.89,4.04-9.33,8.33-17.58,14.49-14.67,10.95-35.08,27.84-51.5,59.93-19.45,38.01-23.25,129.26-23.25,129.26h119.45ZM417.83,127.06c.49-.38,1.2-.28,1.58.21.38.49.28,1.2-.21,1.58-5.44,4.15-11.23,7.84-17.29,11.01-.55.29-1.23.08-1.52-.47-.29-.55-.08-1.23.47-1.52h0c5.95-3.11,11.63-6.73,16.97-10.8ZM427.07,85.02c-.81.18-1.82.84-2.61,1.49-.4.32-.74.64-1.02.89-.14.12-.26.23-.38.33l-.22.16-.2.1c-.09.04-.22.09-.46.09-.1,0-.2-.01-.34-.05h-.01s0,0,0,0c-.26-.09-.33-.17-.39-.22l-.17-.18c-.11-.14-.16-.23-.25-.38-.33-.55-.95-1.67-1.78-3.18-2.47-4.52-6.67-12.39-9.09-16.94-1.19-2.23-2.45-4.59-3.02-7.28h0c-.17-.83-.27-1.69-.27-2.56,0-1.95.49-3.95,1.71-5.6.37-.5,1.08-.6,1.57-.23.5.37.6,1.08.23,1.57h0c-.87,1.16-1.27,2.66-1.27,4.25,0,.7.08,1.41.22,2.1.47,2.27,1.61,4.45,2.8,6.68,1.76,3.31,4.47,8.39,6.76,12.64,1.15,2.13,2.19,4.05,2.95,5.44.24.44.45.81.63,1.13.42-.37.92-.79,1.53-1.21.74-.51,1.59-.99,2.56-1.22.6-.14,1.21.23,1.35.84.14.6-.23,1.21-.84,1.35ZM411.73,168.77h0c7.5-4.59,16.03-6.51,23.67-6.51,4.89,0,9.43.79,13.14,2.21,3.7,1.43,6.62,3.49,8.14,6.19.78,1.41,1.06,3.16,1.06,5.16,0,3.29-.78,7.33-1.96,11.76-1.76,6.65-4.44,14.15-6.85,20.99-2.41,6.82-4.56,13.01-5.27,16.8-1.27,6.81-2.81,13.77-4.64,20.94,1.29,6.1,4.09,11.88,8.1,16.65.4.48.34,1.19-.14,1.58-.48.4-1.19.34-1.58-.14-3.37-4.02-5.92-8.7-7.52-13.69-1.93,7.2-4.15,14.6-6.67,22.26-2.45,7.42-5.18,15.08-8.23,23.02-.22.58-.87.87-1.45.65-.58-.22-.87-.87-.65-1.45,3.61-9.42,6.78-18.43,9.55-27.12,2.39-7.5,4.48-14.75,6.29-21.8,0-.01,0-.02,0-.04-.07-.35.05-.68.26-.93.77-3.06,1.49-6.08,2.16-9.06.86-3.81,1.63-7.57,2.33-11.28.52-2.75,1.65-6.4,3.07-10.57.61-1.81,1.28-3.71,1.97-5.67-1.31-2.81-3.92-5.01-6.87-6.44-3.04-1.48-6.47-2.24-9.95-3l-1.1-.24.24-1.1c2.37-10.95,6.88-21.42,13.22-30.66.35-.51,1.05-.64,1.56-.29.51.35.64,1.05.29,1.56h0c-5.96,8.69-10.25,18.51-12.61,28.78,3.13.69,6.33,1.47,9.33,2.92,2.66,1.29,5.15,3.18,6.87,5.68,1.41-3.99,2.86-8.14,4.14-12.16,2.22-6.97,3.88-13.55,3.87-17.96,0-1.79-.28-3.19-.78-4.06-1.12-2.03-3.59-3.89-6.99-5.19-3.39-1.31-7.68-2.06-12.33-2.06-7.27,0-15.41,1.85-22.5,6.18-.52.32-1.19.16-1.52-.35,0-.01-.02-.02-.03-.03-.32-.53-.16-1.22.37-1.55Z"/>
      <path class="cls-2" d="M389.92,60.5c-2.42-5.76-4.16-9.98-4.96-12.17-6.01-16.5-26.34-1.74-30.06,31.73-9.53.44-22.6,19.15-22.58,49.4,0,1.6.08,3.25.19,4.92-6.78,5.76-13.37,19.93-13.36,39.9.02,25.46,16.49,62.31,23.33,94.98,8.25-6.16,14.69-10.45,17.58-14.49,4.33-6.06,10.03-22.87,17.41-40.04,6.23-14.47,13.65-29.19,22.48-37.96.09-.09.17-.18.26-.26,1.8-1.76,3.64-3.29,5.5-4.67-10.16-25.84-20.98-51.2-22.54-71.17-1.36-17.39,1.92-31.29,6.76-40.17ZM359.49,207.84c1.16,3.98,2.08,8.07,3.36,11.89,1.28,3.82,2.91,7.37,5.45,10.31.41.47.35,1.18-.12,1.59-.47.4-1.18.35-1.59-.12-2.81-3.26-4.55-7.1-5.87-11.07-1.33-3.97-2.25-8.09-3.38-11.97-3.46-11.89-9.42-23.18-14.76-34.66-5.34-11.48-10.07-23.18-10.91-35.92-.04-.62.43-1.16,1.05-1.2.62-.04,1.16.43,1.2,1.05h0c.81,12.28,5.4,23.71,10.71,35.12,5.31,11.41,11.33,22.79,14.88,34.98ZM387.99,186.37c.15.6-.21,1.21-.81,1.37-.6.15-1.21-.21-1.37-.81-1.82-7.08-3.63-14.14-6.42-20.78-2.69-6.4-6.29-12.44-9.5-18.78-9.52-18.84-15.01-39.7-16-60.79-.03-.62.45-1.15,1.07-1.18.62-.03,1.15.45,1.18,1.07h0c.97,20.77,6.38,41.32,15.76,59.88,3.15,6.24,6.79,12.33,9.56,18.92,2.87,6.84,4.71,14.01,6.53,21.09Z"/>
    </g>
  </g>
</svg>