<?xml version="1.0" encoding="UTF-8"?>
<svg id="Layer_1" data-name="Layer 1" xmlns="http://www.w3.org/2000/svg" viewBox="0 0 2297.57 500">
  <defs>
    <style>
      .cls-1 {
        fill: #fff;
      }

      .cls-2 {
        fill: red;
      }
    </style>
  </defs>
  <g>
    <path class="cls-1" d="M658.95,41.8c43.05,0,64.58,21.53,64.58,64.58,0,28.7-8.13,46.88-24.4,54.53l24.4,67.45h-47.36l-17.22-57.4h-28.7v57.4h-43.05V41.8h71.75ZM630.24,127.91h28.7c14.35,0,21.53-7.17,21.53-21.53s-7.17-21.53-21.53-21.53h-28.7v43.05Z"/>
    <path class="cls-1" d="M902.9,135.08c0,62.19-27.27,93.28-81.8,93.28s-83.23-31.09-83.23-93.28,27.74-93.28,83.23-93.28,81.8,31.09,81.8,93.28ZM821.11,84.85c-26.79,0-40.18,16.74-40.18,50.23s13.39,50.23,40.18,50.23,38.75-16.74,38.75-50.23-12.92-50.23-38.75-50.23Z"/>
    <path class="cls-1" d="M1010.53,41.8h43.05v114.8c0,47.84-22.48,71.75-67.45,71.75s-68.88-23.92-68.88-71.75V41.8h43.05v114.8c0,19.14,8.61,28.7,25.83,28.7,16.26,0,24.4-9.57,24.4-28.7V41.8Z"/>
    <path class="cls-1" d="M1197.09,41.8v43.05h-43.05v143.51h-43.05V84.85h-43.05v-43.05h129.16Z"/>
    <path class="cls-1" d="M1321.94,41.8l4.31,43.05h-71.75v28.7h57.4v43.05h-57.4v28.7h71.75l-4.31,43.05h-110.5V41.8h110.5Z"/>
    <path class="cls-1" d="M1383.65,41.8c62.18,0,93.28,31.09,93.28,93.28s-31.09,93.28-93.28,93.28h-43.05V41.8h43.05ZM1383.65,84.85v100.45c33.48,0,50.23-16.74,50.23-50.23s-16.74-50.23-50.23-50.23Z"/>
    <path class="cls-1" d="M658.95,267.91c43.05,0,64.58,21.53,64.58,64.58s-21.53,64.58-64.58,64.58h-28.7v57.4h-43.05v-186.56h71.75ZM630.24,354.01h28.7c14.35,0,21.53-7.17,21.53-21.53s-7.17-21.53-21.53-21.53h-28.7v43.05Z"/>
    <path class="cls-1" d="M780.93,339.66h50.23v-71.75h43.05v186.56h-43.05v-71.75h-50.23v71.75h-43.05v-186.56h43.05v71.75Z"/>
    <path class="cls-1" d="M931.61,267.91v186.56h-43.05v-186.56h43.05Z"/>
    <path class="cls-1" d="M945.96,454.47v-186.56h43.05v143.5h71.75l-4.31,43.05h-110.5Z"/>
    <path class="cls-1" d="M1211.44,339.66v114.8h-43.05v-43.05h-50.23v43.05h-43.05v-114.8c0-47.83,22.96-71.75,68.88-71.75s67.45,23.92,67.45,71.75ZM1143.99,310.96c-17.22,0-25.83,9.57-25.83,28.7v28.7h50.23v-28.7c0-19.13-8.13-28.7-24.4-28.7Z"/>
    <path class="cls-1" d="M1319.07,339.66c0-19.13-8.13-28.7-24.4-28.7-17.22,0-25.83,9.57-25.83,28.7v114.8h-43.05v-114.8c0-47.83,22.96-71.75,68.88-71.75s67.45,23.92,67.45,71.75v114.8h-43.05v-114.8Z"/>
    <path class="cls-1" d="M1505.63,267.91v43.05h-43.05v143.51h-43.05v-143.51h-43.05v-43.05h129.16Z"/>
    <path class="cls-1" d="M1563.03,339.66h50.23v-71.75h43.05v186.56h-43.05v-71.75h-50.23v71.75h-43.05v-186.56h43.05v71.75Z"/>
    <path class="cls-1" d="M1742.41,267.91c43.05,0,64.58,21.53,64.58,64.58,0,28.7-8.13,46.88-24.4,54.53l24.4,67.45h-47.36l-17.22-57.4h-28.7v57.4h-43.05v-186.56h71.75ZM1713.71,354.01h28.7c14.35,0,21.53-7.17,21.53-21.53s-7.17-21.53-21.53-21.53h-28.7v43.05Z"/>
    <path class="cls-1" d="M1986.37,361.19c0,62.19-27.27,93.28-81.8,93.28s-83.23-31.09-83.23-93.28,27.74-93.28,83.23-93.28,81.8,31.09,81.8,93.28ZM1904.57,310.96c-26.79,0-40.18,16.74-40.18,50.23s13.39,50.23,40.18,50.23,38.75-16.74,38.75-50.23-12.92-50.23-38.75-50.23Z"/>
    <path class="cls-1" d="M2072.47,267.91c43.05,0,64.58,21.53,64.58,64.58s-21.53,64.58-64.58,64.58h-28.7v57.4h-43.05v-186.56h71.75ZM2043.77,354.01h28.7c14.35,0,21.53-7.17,21.53-21.53s-7.17-21.53-21.53-21.53h-28.7v43.05Z"/>
    <path class="cls-1" d="M2194.45,318.14c0,14.35,7.17,21.53,21.53,21.53h7.18c14.35,0,21.53-7.17,21.53-21.53v-50.23h43.05v50.23c0,38.27-15.31,59.79-45.92,64.58v71.75h-43.05v-71.75c-31.57-4.78-47.36-26.31-47.36-64.58v-50.23h43.05v50.23Z"/>
  </g>
  <g>
    <path class="cls-2" d="M324.02,241.03c0-20.74-16.81-37.55-37.55-37.55-11.8,0-22.32,5.44-29.2,13.95-6.88-8.51-17.41-13.95-29.2-13.95-20.74,0-37.54,16.81-37.54,37.55,0,44.3,66.75,86.41,66.75,86.41,0,0,66.75-45.69,66.75-86.41Z"/>
    <g>
      <g>
        <path class="cls-1" d="M236.23,453.73s-3.76-90.32-23.01-127.94c-16.25-31.76-36.45-48.48-50.97-59.32-8.17-6.09-14.54-10.34-17.4-14.34-4.29-6-9.93-22.64-17.24-39.63-6.16-14.32-13.51-28.89-22.25-37.57-.08-.08-.17-.18-.25-.26-1.78-1.74-3.6-3.26-5.44-4.62,10.05-25.57,20.76-50.68,22.31-70.44,1.35-17.22-1.9-30.96-6.69-39.76-6.46-11.88-15.73-14.7-20.29-4.67-7.93,17.46-90.45,167.41-84.9,201.53,5.55,34.12,56.33,85.93,56.33,85.93l61.09,56.33-9.52,54.75h118.22ZM107.96,136.44h0c.54.29.75.96.47,1.5-.29.54-.96.75-1.5.47-6-3.14-11.73-6.79-17.12-10.9-.49-.37-.58-1.07-.21-1.56s1.07-.58,1.56-.21c5.28,4.03,10.91,7.61,16.8,10.69ZM81.19,82.8c.14-.6.74-.97,1.34-.83.96.23,1.8.71,2.53,1.21.6.42,1.1.84,1.51,1.2.18-.32.38-.68.62-1.12.76-1.37,1.79-3.28,2.92-5.38,2.27-4.21,4.94-9.23,6.69-12.51,1.18-2.21,2.31-4.37,2.77-6.61.14-.68.22-1.39.22-2.08,0-1.57-.39-3.06-1.25-4.21h0c-.37-.49-.27-1.19.23-1.56.49-.37,1.19-.27,1.56.23,1.22,1.63,1.7,3.61,1.7,5.54,0,.86-.1,1.71-.27,2.53h0c-.56,2.66-1.81,4.99-2.99,7.2-2.4,4.5-6.55,12.3-9,16.77-.82,1.49-1.44,2.61-1.76,3.15-.09.15-.14.24-.25.38l-.17.18c-.07.05-.14.13-.39.22h0s-.01,0-.01,0c-.13.04-.23.05-.33.05-.24,0-.36-.06-.46-.09l-.2-.1-.22-.16c-.12-.1-.24-.2-.38-.33-.27-.25-.61-.56-1.01-.88-.78-.64-1.78-1.3-2.58-1.48-.6-.14-.97-.74-.83-1.34ZM97.58,168.55s-.02.02-.02.03c-.33.5-.99.66-1.51.34-7.02-4.29-15.07-6.12-22.27-6.12-4.6,0-8.85.75-12.21,2.04-3.37,1.29-5.8,3.13-6.91,5.14-.49.87-.77,2.25-.77,4.02,0,4.36,1.64,10.88,3.83,17.78,1.26,3.97,2.7,8.08,4.09,12.03,1.7-2.47,4.17-4.34,6.8-5.62,2.98-1.44,6.14-2.21,9.24-2.89-2.34-10.16-6.58-19.88-12.48-28.48h0c-.35-.51-.22-1.2.29-1.55.51-.35,1.2-.22,1.55.29,6.27,9.14,10.74,19.51,13.08,30.35l.23,1.09-1.09.24c-3.45.75-6.84,1.5-9.85,2.97-2.92,1.41-5.5,3.59-6.8,6.37.68,1.94,1.35,3.83,1.95,5.62,1.4,4.13,2.53,7.74,3.04,10.46.69,3.67,1.46,7.39,2.3,11.17.66,2.96,1.37,5.94,2.14,8.97.21.25.32.58.26.93,0,.01,0,.02,0,.04,1.79,6.98,3.86,14.16,6.22,21.58,2.74,8.6,5.88,17.52,9.45,26.84.22.57-.07,1.22-.64,1.44-.57.22-1.22-.07-1.44-.64-3.01-7.86-5.72-15.44-8.14-22.79-2.5-7.58-4.69-14.91-6.6-22.03-1.58,4.94-4.11,9.57-7.45,13.55-.4.47-1.1.53-1.57.14-.47-.39-.53-1.1-.14-1.57,3.96-4.73,6.73-10.45,8.01-16.48-1.81-7.09-3.33-13.99-4.59-20.72-.7-3.76-2.83-9.88-5.21-16.63-2.39-6.76-5.03-14.2-6.78-20.77-1.16-4.39-1.93-8.39-1.94-11.64,0-1.98.28-3.71,1.05-5.11,1.51-2.68,4.39-4.71,8.06-6.13,3.67-1.41,8.16-2.19,13.01-2.19,7.56,0,16,1.91,23.43,6.45h0c.52.32.69,1.01.37,1.53Z"/>
        <path class="cls-1" d="M125.48,99.63c-1.55,19.76-12.26,44.86-22.31,70.44,1.84,1.36,3.66,2.88,5.44,4.62.09.08.17.18.25.26,8.74,8.68,16.09,23.25,22.25,37.57,7.31,16.99,12.95,33.63,17.24,39.63,2.86,4,9.23,8.24,17.4,14.34,6.76-32.33,23.07-68.8,23.09-94,.01-19.76-6.5-33.79-13.22-39.49.11-1.66.18-3.29.18-4.87.02-29.94-12.92-48.45-22.35-48.89-3.68-33.12-23.81-47.74-29.75-31.4-.79,2.17-2.51,6.34-4.91,12.05,4.79,8.79,8.04,22.54,6.69,39.76ZM163.64,171.08c5.26-11.3,9.8-22.61,10.6-34.76h0c.04-.61.57-1.08,1.18-1.04.61.04,1.08.57,1.04,1.18-.84,12.62-5.52,24.19-10.8,35.56-5.29,11.36-11.19,22.53-14.61,34.3-1.12,3.85-2.03,7.92-3.35,11.85-1.31,3.93-3.04,7.72-5.81,10.95-.4.47-1.1.52-1.57.12-.47-.4-.52-1.1-.12-1.57,2.51-2.92,4.12-6.42,5.39-10.21,1.27-3.78,2.18-7.83,3.32-11.77,3.51-12.06,9.48-23.32,14.73-34.62ZM127.16,163.56c2.74-6.52,6.35-12.55,9.47-18.73,9.28-18.37,14.64-38.71,15.6-59.27h0c.03-.61.55-1.09,1.16-1.06.61.03,1.09.55,1.06,1.16-.98,20.87-6.41,41.52-15.84,60.17-3.17,6.27-6.74,12.25-9.4,18.58-2.76,6.57-4.56,13.56-6.36,20.57-.15.6-.76.95-1.35.8-.6-.15-.95-.76-.8-1.35,1.8-7.01,3.62-14.1,6.46-20.88Z"/>
      </g>
      <g>
        <path class="cls-1" d="M396.53,453.73l-9.52-54.75,61.09-56.33s50.78-51.81,56.33-85.93c5.55-34.12-76.96-184.07-84.9-201.53-4.56-10.03-13.83-7.2-20.29,4.67-4.79,8.79-8.04,22.54-6.69,39.76,1.55,19.76,12.26,44.86,22.31,70.44-1.84,1.36-3.66,2.88-5.44,4.62-.09.08-.17.18-.25.26-8.74,8.68-16.09,23.25-22.25,37.57-7.31,16.99-12.95,33.63-17.24,39.63-2.86,4-9.23,8.24-17.4,14.34-14.52,10.84-34.72,27.56-50.97,59.32-19.25,37.62-23.01,127.94-23.01,127.94h118.22ZM423.38,125.74c.49-.37,1.19-.28,1.56.21.37.49.28,1.19-.21,1.56-5.38,4.11-11.12,7.76-17.12,10.9-.54.29-1.22.07-1.5-.47-.29-.54-.07-1.22.47-1.5h0c5.89-3.08,11.51-6.66,16.8-10.69ZM432.52,84.14c-.8.18-1.8.83-2.58,1.48-.39.32-.73.63-1.01.88-.14.12-.26.23-.38.33l-.22.16-.2.1c-.09.04-.22.09-.46.09-.1,0-.2-.01-.33-.05h-.01s0,0,0,0c-.25-.09-.32-.17-.39-.22l-.17-.18c-.1-.14-.15-.23-.25-.38-.32-.54-.94-1.65-1.76-3.15-2.44-4.47-6.6-12.26-9-16.77-1.17-2.21-2.43-4.54-2.99-7.2h0c-.17-.82-.27-1.68-.27-2.54,0-1.93.48-3.91,1.7-5.54.37-.49,1.07-.59,1.56-.23.49.37.59,1.07.23,1.56h0c-.86,1.15-1.25,2.64-1.25,4.21,0,.69.08,1.4.22,2.08.47,2.24,1.59,4.4,2.77,6.61,1.75,3.28,4.42,8.3,6.69,12.51,1.13,2.1,2.16,4.01,2.92,5.38.24.44.44.8.62,1.12.41-.36.91-.79,1.51-1.2.73-.5,1.57-.98,2.53-1.21.6-.14,1.2.23,1.34.83.14.6-.23,1.2-.83,1.34ZM417.34,167.02h0c7.43-4.54,15.87-6.45,23.43-6.45,4.84,0,9.33.78,13.01,2.19,3.66,1.41,6.55,3.45,8.06,6.13.77,1.4,1.05,3.12,1.05,5.11,0,3.25-.77,7.25-1.94,11.64-1.75,6.58-4.39,14.01-6.78,20.77-2.39,6.75-4.52,12.88-5.21,16.63-1.26,6.74-2.78,13.63-4.59,20.72,1.28,6.03,4.05,11.76,8.01,16.48.4.47.33,1.17-.14,1.57-.47.39-1.17.33-1.57-.14-3.33-3.98-5.86-8.61-7.45-13.55-1.91,7.12-4.1,14.45-6.6,22.03-2.42,7.35-5.13,14.93-8.14,22.79-.22.57-.86.86-1.44.64-.57-.22-.86-.86-.64-1.44,3.57-9.32,6.71-18.24,9.45-26.84,2.37-7.42,4.43-14.6,6.22-21.58,0-.01,0-.02,0-.04-.07-.35.04-.68.26-.93.77-3.03,1.48-6.01,2.14-8.97.85-3.77,1.62-7.5,2.3-11.17.51-2.72,1.64-6.33,3.04-10.46.61-1.79,1.27-3.68,1.95-5.62-1.3-2.78-3.88-4.96-6.8-6.37-3.01-1.46-6.41-2.22-9.85-2.97l-1.09-.24.23-1.09c2.34-10.84,6.81-21.2,13.08-30.35.35-.51,1.04-.64,1.55-.29.51.35.64,1.04.29,1.55h0c-5.9,8.6-10.14,18.32-12.48,28.48,3.1.68,6.26,1.45,9.24,2.89,2.63,1.28,5.1,3.14,6.8,5.62,1.39-3.95,2.83-8.06,4.09-12.03,2.2-6.89,3.84-13.41,3.83-17.78,0-1.77-.28-3.15-.77-4.02-1.11-2.01-3.55-3.85-6.91-5.14-3.36-1.29-7.6-2.04-12.21-2.04-7.19,0-15.25,1.83-22.27,6.12-.51.31-1.18.16-1.51-.34,0-.01-.02-.02-.02-.03-.32-.52-.16-1.21.37-1.53Z"/>
        <path class="cls-1" d="M395.75,59.87c-2.39-5.7-4.12-9.88-4.91-12.05-5.95-16.34-26.07-1.72-29.75,31.4-9.43.44-22.37,18.95-22.35,48.89,0,1.58.08,3.21.18,4.87-6.71,5.7-13.23,19.72-13.22,39.49.02,25.2,16.32,61.67,23.09,94,8.17-6.09,14.54-10.34,17.4-14.34,4.29-6,9.93-22.64,17.24-39.63,6.16-14.32,13.51-28.89,22.25-37.57.08-.08.17-.18.25-.26,1.78-1.74,3.6-3.26,5.44-4.62-10.05-25.57-20.76-50.68-22.31-70.44-1.35-17.22,1.9-30.96,6.69-39.76ZM365.64,205.7c1.14,3.94,2.05,7.98,3.32,11.77,1.27,3.78,2.88,7.29,5.39,10.21.4.47.35,1.17-.12,1.57-.47.4-1.17.35-1.57-.12-2.78-3.23-4.5-7.03-5.81-10.95-1.31-3.93-2.23-8-3.35-11.85-3.42-11.77-9.32-22.94-14.61-34.3-5.28-11.36-9.96-22.94-10.8-35.56-.04-.61.42-1.14,1.04-1.18.61-.04,1.14.42,1.18,1.04h0c.8,12.15,5.34,23.47,10.6,34.76,5.25,11.3,11.22,22.55,14.73,34.62ZM393.84,184.44c.15.6-.21,1.2-.8,1.35-.6.15-1.2-.21-1.35-.8-1.8-7.01-3.6-14-6.36-20.57-2.66-6.33-6.23-12.32-9.4-18.58-9.42-18.65-14.86-39.29-15.84-60.17-.03-.61.45-1.13,1.06-1.16.61-.03,1.14.45,1.16,1.06h0c.96,20.56,6.32,40.9,15.6,59.27,3.12,6.17,6.72,12.2,9.47,18.73,2.84,6.77,4.66,13.87,6.46,20.88Z"/>
      </g>
    </g>
  </g>
</svg>